<svg width="960" height="720" viewBox="0 0 960 720" fill="none" xmlns="http://www.w3.org/2000/svg" role="img" aria-labelledby="title desc">
  <title id="title">Clinic audit trail and access control interface</title>
  <desc id="desc">A privacy-focused operations panel showing minimal data, role access, timestamps, and staff actions.</desc>
  <rect width="960" height="720" rx="44" fill="#0D1F1D"/>
  <rect x="80" y="76" width="800" height="568" rx="36" fill="#122B28" stroke="#2E5550" stroke-width="2"/>
  <rect x="128" y="124" width="214" height="32" rx="16" fill="#DDF3F1" fill-opacity="0.12"/>
  <rect x="128" y="184" width="322" height="22" rx="11" fill="#F5FAFF" fill-opacity="0.9"/>
  <rect x="128" y="222" width="420" height="14" rx="7" fill="#B5C7C3" fill-opacity="0.48"/>
  <rect x="128" y="284" width="704" height="72" rx="22" fill="#0F2522" stroke="#2E5550"/>
  <circle cx="166" cy="320" r="16" fill="#5EB8B4"/>
  <rect x="200" y="302" width="166" height="14" rx="7" fill="#F5FAFF" fill-opacity="0.86"/>
  <rect x="200" y="328" width="250" height="10" rx="5" fill="#B5C7C3" fill-opacity="0.44"/>
  <rect x="658" y="302" width="124" height="28" rx="14" fill="#DDF3F1" fill-opacity="0.16"/>
  <rect x="128" y="380" width="704" height="72" rx="22" fill="#0F2522" stroke="#2E5550"/>
  <circle cx="166" cy="416" r="16" fill="#5EB8B4" fill-opacity="0.35"/>
  <rect x="200" y="398" width="208" height="14" rx="7" fill="#F5FAFF" fill-opacity="0.86"/>
  <rect x="200" y="424" width="300" height="10" rx="5" fill="#B5C7C3" fill-opacity="0.44"/>
  <rect x="658" y="398" width="124" height="28" rx="14" fill="#DDF3F1" fill-opacity="0.16"/>
  <rect x="128" y="476" width="704" height="72" rx="22" fill="#0F2522" stroke="#2E5550"/>
  <circle cx="166" cy="512" r="16" fill="#5EB8B4" fill-opacity="0.2"/>
  <rect x="200" y="494" width="184" height="14" rx="7" fill="#F5FAFF" fill-opacity="0.86"/>
  <rect x="200" y="520" width="278" height="10" rx="5" fill="#B5C7C3" fill-opacity="0.44"/>
  <rect x="658" y="494" width="124" height="28" rx="14" fill="#DDF3F1" fill-opacity="0.16"/>
  <path d="M719 169C719 140.833 741.833 118 770 118C798.167 118 821 140.833 821 169V196H719V169Z" stroke="#5EB8B4" stroke-width="16" stroke-linecap="round"/>
  <rect x="688" y="188" width="164" height="142" rx="34" fill="#DDF3F1"/>
  <circle cx="770" cy="250" r="18" fill="#0D9488"/>
  <rect x="764" y="268" width="12" height="28" rx="6" fill="#0D9488"/>
</svg>
